<svg enable-background="new 0 0 512 512" viewBox="0 0 512 512" xmlns="http://www.w3.org/2000/svg"><circle cx="120.6" cy="164.349" fill="#ffd60d" r="98.326"/><path d="m438.853 309.85c-5.478 0-10.796.678-15.886 1.934 1.136-4.953 1.756-10.102 1.756-15.399 0-37.901-30.725-68.625-68.625-68.625-14.383 0-27.727 4.433-38.756 11.995-12.874-49.6-57.944-86.224-111.571-86.224-63.658 0-115.263 51.605-115.263 115.263-47.861 0-86.66 38.742-86.66 86.603s38.798 86.603 86.659 86.603h348.346c36.524 0 66.132-29.551 66.132-66.075-.001-36.523-29.609-66.075-66.132-66.075z" fill="#b0e9ff"/></svg>