<svg enable-background="new 0 0 512 512" viewBox="0 0 512 512" xmlns="http://www.w3.org/2000/svg"><path d="m305.688 346.998s-.999-.824-2.872-2.368c-1.881-1.426-4.698-3.515-8.538-5.765-3.837-2.237-8.737-4.561-14.616-6.426-5.876-1.856-12.758-3.144-20.307-3.418-7.545-.199-15.759.72-24.002 3.223-8.234 2.499-16.444 6.67-23.756 12.493-.917.724-1.827 1.463-2.693 2.262-.914.811-1.832 1.626-2.753 2.443l-1.388 1.23-1.533 1.235c-.514.407-1.024.834-1.544 1.226l-1.574 1.143c-4.214 3.04-8.804 5.675-13.664 7.8-9.724 4.246-20.479 6.479-31.248 6.525-10.77-.042-21.525-2.278-31.249-6.523-4.86-2.126-9.453-4.755-13.666-7.797l-1.574-1.144c-.517-.389-1.013-.805-1.519-1.206l-1.506-1.211-1.442-1.277c-.922-.818-1.841-1.634-2.756-2.446-.457-.399-.917-.828-1.368-1.2l-1.342-1.076c-7.267-5.789-15.511-9.98-23.733-12.474-8.242-2.504-16.456-3.421-24-3.224-7.548.273-14.43 1.564-20.306 3.417-5.879 1.864-10.778 4.187-14.616 6.424-3.838 2.248-6.656 4.336-8.56 5.782-1.847 1.52-2.832 2.331-2.832 2.331l-.045.037c-.46.379-1.14.313-1.519-.147-.365-.444-.315-1.094.102-1.479 0 0 .968-.892 2.782-2.565 1.886-1.586 4.649-3.958 8.559-6.441 3.894-2.492 8.899-5.131 14.982-7.343 6.075-2.209 13.27-3.881 21.257-4.376 7.974-.46 16.745.246 25.611 2.76 8.864 2.489 17.786 6.727 25.79 12.978l1.519 1.192c.494.399.933.798 1.403 1.199.927.801 1.857 1.605 2.791 2.412l1.348 1.165 1.409 1.1c.473.364.935.744 1.418 1.097l1.469 1.037c3.937 2.748 8.194 5.135 12.684 7.092 8.997 3.883 18.954 5.901 28.911 5.907 9.957-.002 19.914-2.023 28.912-5.906 4.49-1.958 8.751-4.338 12.686-7.09l1.469-1.037c.479-.351.927-.719 1.392-1.077l1.382-1.076 1.402-1.211c.935-.808 1.866-1.613 2.794-2.415.947-.849 1.94-1.635 2.939-2.404 7.959-6.216 16.914-10.475 25.766-12.958 8.865-2.515 17.635-3.218 25.609-2.76 7.987.493 15.181 2.169 21.256 4.375 6.082 2.211 11.088 4.849 14.982 7.341 3.907 2.481 6.671 4.852 8.58 6.458 1.788 1.649 2.741 2.528 2.741 2.528.439.405.466 1.088.062 1.527-.391.426-1.046.462-1.486.101zm203.085-82.879c.405-.439.377-1.122-.062-1.527 0 0-.954-.879-2.741-2.528-1.909-1.606-4.674-3.977-8.58-6.458-3.894-2.491-8.9-5.13-14.982-7.341-6.075-2.206-13.269-3.881-21.256-4.375-7.974-.458-16.744.245-25.609 2.76-8.852 2.484-17.808 6.743-25.766 12.958-1 .769-1.992 1.556-2.939 2.404-.928.802-1.859 1.607-2.794 2.415l-1.402 1.211-1.382 1.076c-.465.357-.913.726-1.392 1.077l-1.469 1.037c-3.935 2.752-8.197 5.132-12.686 7.09-8.998 3.882-18.955 5.904-28.912 5.906-9.957-.006-19.914-2.024-28.911-5.908-4.49-1.957-8.747-4.344-12.684-7.092l-1.469-1.037c-.483-.353-.945-.733-1.418-1.097l-1.409-1.1-1.348-1.164c-.934-.807-1.864-1.611-2.791-2.412-.47-.4-.909-.8-1.403-1.199l-1.519-1.192c-8.004-6.251-16.926-10.489-25.79-12.978-8.866-2.514-17.636-3.221-25.611-2.76-7.987.495-15.182 2.167-21.257 4.376-6.082 2.212-11.088 4.851-14.982 7.343-3.909 2.483-6.672 4.855-8.559 6.441-1.814 1.673-2.782 2.565-2.782 2.565-.416.385-.467 1.036-.102 1.479.379.46 1.059.526 1.519.147l.045-.037s.985-.811 2.832-2.331c1.903-1.445 4.722-3.534 8.56-5.782 3.838-2.237 8.737-4.56 14.616-6.424 5.876-1.853 12.758-3.144 20.306-3.417 7.544-.197 15.758.719 24 3.224 8.222 2.494 16.466 6.685 23.733 12.474l1.342 1.076c.451.372.912.801 1.368 1.2.915.812 1.834 1.628 2.756 2.446l1.442 1.277 1.506 1.211c.506.401 1.002.816 1.519 1.206l1.574 1.144c4.213 3.043 8.806 5.672 13.666 7.797 9.724 4.245 20.479 6.481 31.249 6.523 10.77-.046 21.525-2.279 31.248-6.525 4.86-2.125 9.449-4.76 13.664-7.8l1.574-1.143c.521-.392 1.031-.819 1.544-1.226l1.533-1.235 1.388-1.23c.921-.817 1.839-1.632 2.753-2.443.866-.799 1.776-1.538 2.693-2.262 7.313-5.824 15.522-9.994 23.756-12.493 8.242-2.504 16.457-3.423 24.002-3.223 7.549.274 14.431 1.562 20.307 3.418 5.879 1.865 10.778 4.189 14.616 6.426 3.84 2.25 6.657 4.339 8.538 5.765 1.873 1.544 2.872 2.368 2.872 2.368.441.357 1.096.322 1.486-.101zm-408.019-99.019c-.405.439-.377 1.122.062 1.527 0 0 .954.879 2.741 2.528 1.909 1.606 4.674 3.977 8.58 6.458 3.894 2.491 8.9 5.13 14.982 7.341 6.075 2.206 13.269 3.881 21.256 4.375 7.974.458 16.744-.245 25.609-2.76 8.852-2.484 17.808-6.743 25.766-12.958 1-.769 1.992-1.556 2.939-2.404.928-.802 1.859-1.607 2.794-2.415l1.402-1.211 1.382-1.076c.465-.357.913-.726 1.392-1.077l1.469-1.037c3.935-2.752 8.197-5.132 12.686-7.09 8.998-3.882 18.955-5.904 28.912-5.906 9.957.006 19.914 2.024 28.911 5.907 4.49 1.957 8.747 4.344 12.684 7.092l1.469 1.037c.483.353.945.733 1.418 1.097l1.409 1.1 1.348 1.165c.934.807 1.864 1.611 2.791 2.412.47.4.909.8 1.403 1.199l1.519 1.192c8.004 6.251 16.926 10.489 25.79 12.978 8.866 2.514 17.636 3.221 25.611 2.76 7.987-.495 15.182-2.167 21.257-4.376 6.082-2.212 11.088-4.851 14.982-7.343 3.909-2.483 6.672-4.855 8.559-6.441 1.814-1.673 2.782-2.565 2.782-2.565.416-.385.467-1.036.102-1.479-.379-.46-1.059-.526-1.519-.147l-.045.037s-.985.811-2.832 2.331c-1.903 1.445-4.722 3.534-8.56 5.782-3.838 2.237-8.737 4.56-14.616 6.424-5.876 1.853-12.758 3.144-20.306 3.417-7.544.197-15.758-.719-24-3.224-8.222-2.494-16.466-6.685-23.733-12.474l-1.342-1.076c-.451-.372-.912-.801-1.368-1.2-.915-.812-1.834-1.628-2.756-2.446l-1.442-1.277-1.506-1.211c-.506-.401-1.002-.816-1.519-1.206l-1.574-1.144c-4.213-3.043-8.806-5.672-13.666-7.797-9.724-4.245-20.479-6.481-31.249-6.523-10.77.046-21.525 2.279-31.248 6.525-4.86 2.125-9.449 4.76-13.664 7.8l-1.574 1.143c-.521.392-1.031.819-1.544 1.226l-1.533 1.235-1.388 1.23c-.921.817-1.839 1.632-2.753 2.443-.866.799-1.776 1.538-2.693 2.262-7.313 5.824-15.523 9.994-23.756 12.493-8.242 2.504-16.457 3.423-24.002 3.223-7.549-.274-14.431-1.562-20.307-3.418-5.879-1.865-10.778-4.189-14.616-6.426-3.84-2.25-6.657-4.339-8.538-5.765-1.873-1.544-2.872-2.368-2.872-2.368-.44-.358-1.096-.322-1.486.101z" fill="#d3dde0"/></svg>