<svg enable-background="new 0 0 512 512" viewBox="0 0 512 512" xmlns="http://www.w3.org/2000/svg"><circle cx="129.407" cy="83.757" fill="#ffd60d" r="80.511"/><path d="m54.815 416.554c-2.842 0-5.685-1.084-7.854-3.253-4.337-4.337-4.337-11.37 0-15.707l56.781-56.781c4.337-4.338 11.37-4.338 15.707 0 4.337 4.337 4.337 11.37 0 15.707l-56.781 56.781c-2.168 2.169-5.011 3.253-7.853 3.253zm51.76 75.419 53.682-53.682c4.337-4.337 4.337-11.369 0-15.707-4.337-4.337-11.37-4.339-15.707 0l-53.682 53.682c-4.337 4.337-4.337 11.369 0 15.707 2.169 2.169 5.011 3.253 7.854 3.253 2.841 0 5.684-1.084 7.853-3.253zm131.046-77.845 42.772-42.772c4.338-4.337 4.338-11.37 0-15.707-4.338-4.338-11.369-4.338-15.707 0l-42.772 42.772c-4.337 4.337-4.337 11.37 0 15.707 2.168 2.169 5.011 3.253 7.854 3.253s5.685-1.084 7.853-3.253zm-15.173 87.562 62.209-62.208c4.338-4.337 4.338-11.369 0-15.707-4.337-4.338-11.368-4.338-15.707 0l-62.209 62.208c-4.337 4.337-4.337 11.369 0 15.707 2.169 2.169 5.011 3.253 7.854 3.253 2.842 0 5.685-1.084 7.853-3.253zm140.635-58.555 54.07-54.07c4.338-4.337 4.338-11.37 0-15.707-4.338-4.338-11.369-4.338-15.707 0l-54.07 54.07c-4.338 4.337-4.338 11.37 0 15.707 2.169 2.169 5.011 3.253 7.854 3.253s5.684-1.084 7.853-3.253zm21.679-135.369-72.074 72.075c-4.338 4.338-4.338 11.37 0 15.707 2.169 2.169 5.011 3.253 7.854 3.253s5.685-1.084 7.854-3.253l72.074-72.075c4.338-4.338 4.338-11.37 0-15.707-4.339-4.338-11.37-4.338-15.708 0zm44.182-128.062c-5.156 0-10.161.639-14.952 1.82 1.069-4.661 1.653-9.508 1.653-14.493 0-35.672-28.918-64.59-64.59-64.59-13.537 0-26.096 4.172-36.477 11.29-12.116-46.683-54.536-81.153-105.01-81.153-59.914 0-108.485 48.57-108.485 108.485-45.046 0-81.563 36.422-81.563 81.468s36.517 81.468 81.563 81.468h112.412l-65.175 65.269c-4.337 4.337-4.337 11.418 0 15.754 2.168 2.169 5.011 3.277 7.854 3.277s5.685-1.167 7.854-3.336l80.882-80.963h184.034c34.376 0 62.243-27.772 62.243-62.148-.001-34.376-27.868-62.148-62.243-62.148z" fill="#b0e9ff"/></svg>