<svg enable-background="new 0 0 512 512" viewBox="0 0 512 512" xmlns="http://www.w3.org/2000/svg"><path d="m441.518 268.098c-5.51 0-10.859.682-15.98 1.945 1.143-4.982 1.767-10.161 1.767-15.489 0-38.123-30.905-69.028-69.028-69.028-14.467 0-27.889 4.459-38.983 12.065-12.949-49.891-58.284-86.729-112.225-86.729-64.031 0-115.939 51.908-115.939 115.939-48.141 0-87.168 39.026-87.168 87.168 0 48.141 39.026 87.168 87.168 87.168h350.388c36.738 0 66.52-29.782 66.52-66.52 0-36.737-29.782-66.519-66.52-66.519z" fill="#b0e9ff"/></svg>