<svg enable-background="new 0 0 512 512" viewBox="0 0 512 512" xmlns="http://www.w3.org/2000/svg"><path d="m356.308 343.349c-2.542 0-5.084-.97-7.023-2.909-3.879-3.879-3.879-10.168 0-14.047l33.274-33.274c3.879-3.879 10.168-3.879 14.047 0s3.879 10.168 0 14.047l-33.274 33.274c-1.94 1.939-4.482 2.909-7.024 2.909zm-281.162 81.722 36.836-36.836c3.879-3.879 3.879-10.168 0-14.047-3.88-3.878-10.168-3.88-14.046 0l-36.837 36.836c-3.878 3.879-3.878 10.168 0 14.047 1.94 1.939 4.481 2.909 7.023 2.909s5.084-.969 7.024-2.909zm32.977 73.948 36.836-36.836c3.879-3.879 3.879-10.168 0-14.047-3.879-3.878-10.168-3.88-14.046 0l-36.837 36.836c-3.878 3.879-3.878 10.168 0 14.047 1.94 1.939 4.481 2.909 7.023 2.909s5.085-.97 7.024-2.909zm-28.331-166.574 36.005-36.004c3.878-3.879 3.878-10.168 0-14.047-3.879-3.879-10.167-3.879-14.047 0l-36.004 36.004c-3.878 3.879-3.879 10.168 0 14.047 1.94 1.939 4.481 2.909 7.023 2.909 2.541 0 5.084-.969 7.023-2.909zm345.795-185.298c-5.053 0-9.959.626-14.654 1.784 1.048-4.568 1.62-9.318 1.62-14.204 0-34.961-28.341-63.302-63.302-63.302-13.267 0-25.576 4.089-35.749 11.065-11.875-45.753-53.449-79.536-102.916-79.536-58.72 0-106.322 47.602-106.322 106.322-44.148 0-79.937 35.714-79.937 79.862s35.789 79.862 79.937 79.862h98.71l-61.37 61.445c-3.878 3.879-3.878 10.205 0 14.084 1.939 1.939 4.481 2.928 7.023 2.928s5.084-1.035 7.023-2.975l75.417-75.482h78.215l-43.608 43.683c-3.879 3.879-3.879 10.205 0 14.084 1.939 1.939 4.481 2.928 7.023 2.928s5.084-1.035 7.023-2.975l57.656-57.72h88.211c33.69 0 61.002-27.236 61.002-60.927s-27.312-60.926-61.002-60.926zm-242.529 276.322 62.763-62.764c3.878-3.879 3.878-10.168 0-14.047-3.879-3.879-10.168-3.879-14.047 0l-62.763 62.764c-3.878 3.879-3.878 10.168 0 14.047 1.939 1.939 4.481 2.909 7.023 2.909s5.084-.97 7.024-2.909zm56.071 50.951 84.809-84.809c3.879-3.879 3.879-10.168 0-14.047s-10.168-3.879-14.047 0l-84.809 84.809c-3.878 3.879-3.878 10.168 0 14.047 1.939 1.939 4.481 2.909 7.023 2.909s5.084-.97 7.024-2.909z" fill="#a7c1c9"/></svg>