<svg enable-background="new 0 0 512 512" viewBox="0 0 512 512" xmlns="http://www.w3.org/2000/svg"><path d="m205.01 481.527c-.772 1.266-2.121 1.965-3.502 1.965-.727 0-1.464-.194-2.131-.601l-10.46-6.379 1.772 7.324c.533 2.199-.824 4.414-3.023 4.947-.324.078-.661.116-.98.116-1.848 0-3.548-1.259-4.002-3.134l-3.751-15.289-12.933-7.83v15.517l11.205 11.124c1.6 1.601 1.681 4.194.081 5.795-.8.8-1.872 1.2-2.921 1.2s-2.144-.4-2.944-1.2l-5.421-5.329v11.773c0 2.263-1.737 4.098-4 4.098s-4-1.835-4-4.098v-12.25l-5.332 5.329c-1.601 1.6-4.198 1.6-5.798 0-1.6-1.601-1.598-4.194.002-5.795l11.128-11.123v-15.339l-13.796 7.743-4.259 15.145c-.508 1.808-2.153 2.99-3.943 2.99-.367 0-.739-.05-1.11-.153-2.179-.612-3.449-2.875-2.837-5.054l2.038-7.255-10.266 5.763c-.634.355-1.323.525-2.002.525-1.434 0-2.825-.754-3.577-2.093-1.107-1.974-.406-4.471 1.567-5.579l10.682-5.997-7.256-2.038c-2.179-.612-3.449-2.875-2.837-5.054.612-2.178 2.874-3.446 5.053-2.837l15.146 4.255 13.375-7.509-13.503-8.236-15.289 3.704c-.324.078-.649.116-.968.116-1.848 0-3.524-1.259-3.979-3.134-.533-2.199.818-4.414 3.018-4.947l7.324-1.775-10.051-6.128c-1.932-1.178-2.543-3.699-1.364-5.632 1.179-1.932 3.699-2.542 5.632-1.364l10.459 6.379-1.775-7.325c-.533-2.199.819-4.414 3.018-4.947 2.2-.531 4.415.818 4.948 3.018l3.707 15.29 12.845 7.83v-15.517l-11.127-11.124c-1.6-1.601-1.604-4.194-.003-5.795 1.601-1.6 4.197-1.6 5.797 0l5.333 5.329v-11.773c0-2.263 1.737-4.098 4-4.098s4 1.835 4 4.098v12.25l5.399-5.329c1.601-1.6 4.264-1.6 5.865 0 1.6 1.601 1.554 4.194-.047 5.795l-11.217 11.124v15.339l13.885-7.743 4.347-15.145c.612-2.178 2.873-3.445 5.053-2.837 2.179.612 3.449 2.875 2.837 5.054l-2.038 7.255 10.266-5.764c1.973-1.106 4.471-.405 5.579 1.567 1.107 1.974.406 4.471-1.567 5.579l-10.681 5.997 7.255 2.038c2.179.612 3.449 2.875 2.837 5.054-.508 1.808-2.153 2.99-3.943 2.99-.367 0-.739-.05-1.11-.153l-15.145-4.254-13.376 7.51 13.503 8.236 15.289-3.705c2.198-.531 4.414.818 4.947 3.018.533 2.199-.818 4.414-3.018 4.947l-7.324 1.775 10.051 6.131c1.932 1.175 2.542 3.697 1.363 5.629zm66.059-146.589-11.496-7.012 8.647-2.095c2.199-.533 3.551-2.748 3.018-4.947-.532-2.198-2.744-3.548-4.947-3.018l-16.612 4.025-15.137-9.233 15.012-8.428 16.456 4.623c.371.104.744.153 1.11.153 1.79 0 3.435-1.183 3.943-2.99.611-2.179-.658-4.441-2.837-5.054l-8.566-2.406 12.189-6.843c1.974-1.108 2.675-3.605 1.567-5.579-1.107-1.973-3.604-2.675-5.579-1.567l-11.741 6.591 2.406-8.565c.612-2.179-.658-4.441-2.837-5.054-2.179-.609-4.441.659-5.053 2.837l-4.387 16.455-15.225 8.682v-17.216l11.851-12.086c1.6-1.601 1.483-4.194-.118-5.795-1.601-1.6-4.018-1.6-5.619 0l-6.114 6.292v-13.98c0-2.263-2.237-4.098-4.5-4.098s-4.5 1.835-4.5 4.098v13.465l-6.124-6.291c-1.601-1.6-4.111-1.6-5.711 0-1.6 1.601-1.726 4.194-.125 5.795l11.96 12.086v17.431l-14.275-8.809-3.941-16.612c-.534-2.199-2.707-3.549-4.905-3.018-2.199.533-3.529 2.748-2.997 4.947l2.106 8.647-11.929-7.279c-1.932-1.178-4.451-.567-5.629 1.364-1.179 1.933-.567 4.454 1.366 5.632l11.496 7.012-8.647 2.095c-2.199.533-3.55 2.748-3.017 4.947.455 1.875 2.131 3.134 3.979 3.134.319 0 .644-.038.968-.116l16.612-4.025 15.137 9.232-15.012 8.428-16.455-4.622c-2.181-.608-4.441.659-5.053 2.837-.612 2.179.658 4.441 2.837 5.054l8.564 2.405-12.189 6.843c-1.973 1.108-2.675 3.605-1.567 5.579.752 1.339 2.144 2.093 3.577 2.093.679 0 1.368-.17 2.002-.525l11.741-6.592-2.406 8.565c-.612 2.179.658 4.441 2.837 5.054.371.104.743.153 1.11.153 1.791 0 3.435-1.183 3.943-2.99l4.455-16.456 15.292-8.679v17.217l-11.919 12.085c-1.6 1.6-1.516 4.194.084 5.795 1.601 1.599 4.069 1.601 5.669 0l6.166-6.29v13.979c0 2.263 2.237 4.098 4.5 4.098s4.5-1.835 4.5-4.098v-13.465l6.056 6.291c.8.8 1.731 1.2 2.78 1.2s2.038-.4 2.839-1.2c1.6-1.601 1.806-4.194.206-5.795l-11.881-12.086v-17.432l14.208 8.809 3.907 16.612c.455 1.875 2.073 3.134 3.92 3.134.319 0 .615-.038.939-.116 2.199-.533 3.536-2.748 3.003-4.947l-2.103-8.647 11.931 7.279c.666.406 1.401.601 2.128.601 1.382 0 2.73-.699 3.501-1.965 1.179-1.933.567-4.455-1.365-5.633zm163.971 58.062h-19.33l9.627-9.625c1.601-1.601 1.601-4.193 0-5.793-1.6-1.6-4.195-1.602-5.795-.002l-15.422 15.42h-24.07l12.198-19.996 21.198-5.135c2.199-.533 3.551-2.747 3.018-4.947-.532-2.199-2.749-3.548-4.947-3.017l-13.233 3.207 10.401-17.053c1.179-1.932.567-4.453-1.364-5.632-1.931-1.178-4.454-.567-5.632 1.364l-10.067 16.504-3.207-13.234c-.533-2.199-2.748-3.547-4.947-3.018-2.199.533-3.551 2.748-3.018 4.947l5.137 21.199-12.689 20.803-11.614-20.688 5.899-20.999c.611-2.179-.658-4.441-2.837-5.054-2.183-.606-4.441.659-5.054 2.837l-3.682 13.112-9.778-17.417c-1.108-1.973-3.604-2.675-5.579-1.567-1.974 1.108-2.675 3.605-1.567 5.579l9.464 16.858-13.109-3.683c-2.185-.606-4.441.66-5.054 2.837-.611 2.179.658 4.441 2.837 5.054l21 5.895 11.928 21.244h-23.725l-15.422-15.42c-1.6-1.6-4.195-1.598-5.795.001-1.601 1.601-1.601 4.192 0 5.793l9.627 9.626h-19.975c-2.263 0-4.098 1.737-4.098 4s1.835 4 4.098 4h19.332l-9.628 9.729c-1.601 1.601-1.601 4.245 0 5.845.8.8 1.849 1.225 2.897 1.225s2.098-.488 2.897-1.288l15.424-15.511h24.069l-12.198 20.099-21.198 5.186c-2.199.533-3.551 2.773-3.018 4.972.532 2.199 2.748 3.561 4.947 3.03l13.233-3.2-10.401 17.056c-1.179 1.932-.567 4.455 1.364 5.633.666.406 1.402.601 2.13.601 1.382 0 2.73-.699 3.502-1.964l10.066-16.504 3.206 13.233c.454 1.875 2.131 3.134 3.979 3.134.319 0 .644-.038.968-.116 2.199-.533 3.551-2.748 3.018-4.947l-5.136-21.198 12.689-20.803 11.614 20.688-5.899 20.999c-.611 2.179.658 4.441 2.837 5.054.371.104.744.153 1.11.153 1.79 0 3.436-1.183 3.943-2.99l3.682-13.109 9.778 17.417c.752 1.339 2.144 2.093 3.577 2.093.679 0 1.367-.17 2.002-.525 1.974-1.108 2.675-3.605 1.567-5.579l-9.464-16.857 13.108 3.683c2.187.611 4.441-.659 5.054-2.837.611-2.179-.658-4.441-2.837-5.054l-20.999-5.998-11.926-21.35h23.724l15.423 15.523c.8.8 1.849 1.25 2.897 1.25s2.098-.375 2.897-1.175c1.601-1.601 1.601-4.282 0-5.883l-9.627-9.715h19.975c2.263 0 4.098-1.737 4.098-4s-1.835-4-4.098-4zm-28.881-257.195c-4.446 0-8.763.551-12.895 1.57.922-4.02 1.425-8.199 1.425-12.499 0-30.763-24.938-55.701-55.701-55.701-11.674 0-22.505 3.598-31.457 9.736-10.449-40.258-47.031-69.985-90.559-69.985-51.669 0-93.556 41.886-93.556 93.556-38.847 0-70.339 31.412-70.339 70.259s31.494 70.259 70.341 70.259h282.741c29.645 0 53.677-23.952 53.677-53.597s-24.032-53.598-53.677-53.598z" fill="#b0e9ff"/></svg>