<svg enable-background="new 0 0 512 512" viewBox="0 0 512 512" xmlns="http://www.w3.org/2000/svg"><path d="m476.674 280.72-118.887 14.006-69.787-40.291 69.787-40.291 118.887 14.007c.655.077 1.307.115 1.951.115 8.25 0 15.377-6.176 16.366-14.571 1.066-9.05-5.406-17.251-14.456-18.317l-74.949-8.83 46.691-26.957c7.892-4.557 10.596-14.648 6.039-22.54-4.556-7.892-14.646-10.597-22.539-6.04l-46.692 26.957 29.827-69.323c3.602-8.371-.264-18.076-8.635-21.678-8.368-3.601-18.076.264-21.678 8.635l-47.313 109.963-68.363 39.47v-80.585l71.572-95.955c5.449-7.305 3.944-17.643-3.36-23.091-7.305-5.448-17.643-3.944-23.091 3.361l-45.121 60.492v-48.365c0-9.113-7.388-16.5-16.5-16.5s-16.5 7.387-16.5 16.5v48.366l-45.122-60.493c-5.449-7.305-15.788-8.808-23.091-3.361-7.305 5.449-8.809 15.787-3.361 23.091l71.574 95.956v82.226l-71.211-41.114-47.313-109.961c-3.602-8.37-13.307-12.236-21.678-8.635-8.371 3.602-12.237 13.308-8.635 21.678l29.828 69.323-41.886-24.183c-7.892-4.555-17.983-1.852-22.54 6.04-4.556 7.892-1.853 17.983 6.04 22.54l41.886 24.183-74.95 8.83c-9.05 1.066-15.522 9.267-14.456 18.317.989 8.395 8.116 14.572 16.366 14.571.644 0 1.296-.038 1.951-.115l118.888-14.007 69.787 40.29-69.787 40.292-118.887-14.006c-9.053-1.065-17.251 5.405-18.317 14.456-1.066 9.05 5.406 17.251 14.456 18.317l74.949 8.83-41.885 24.182c-7.892 4.556-10.596 14.647-6.04 22.539 3.056 5.294 8.602 8.253 14.305 8.253 2.799 0 5.636-.714 8.234-2.214l41.887-24.183-29.829 69.324c-3.602 8.371.265 18.076 8.635 21.678 2.126.915 4.337 1.348 6.514 1.348 6.393 0 12.478-3.737 15.165-9.982l47.314-109.963 71.21-41.113v80.583l-71.574 95.956c-5.448 7.305-3.944 17.643 3.361 23.091 2.961 2.21 6.421 3.275 9.853 3.275 5.031 0 9.999-2.293 13.239-6.636l45.122-60.493v53.915c0 9.112 7.387 16.5 16.5 16.5s16.5-7.388 16.5-16.5v-53.914l45.121 60.492c5.448 7.306 15.788 8.809 23.091 3.36 7.305-5.448 8.81-15.786 3.36-23.091l-71.572-95.955v-78.941l68.363 39.469 47.314 109.963c2.687 6.245 8.771 9.982 15.164 9.982 2.176 0 4.389-.433 6.514-1.348 8.371-3.602 12.236-13.307 8.635-21.678l-29.828-69.324 46.692 26.958c2.599 1.501 5.436 2.214 8.234 2.214 5.702 0 11.249-2.96 14.305-8.253 4.557-7.892 1.853-17.983-6.039-22.539l-46.69-26.957 74.948-8.83c9.05-1.066 15.522-9.268 14.456-18.317-1.068-9.047-9.262-15.52-18.319-14.454z" fill="#59cafc"/></svg>