<svg enable-background="new 0 0 512 512" viewBox="0 0 512 512" xmlns="http://www.w3.org/2000/svg"><path d="m322.879 231.55-138.608 136.402-2.173-5.245 137.404-.29h.045c1.845-.004 3.344 1.489 3.348 3.334.002.94-.392 1.798-1.016 2.406l-132.129 128.048c-.189.183-.49.178-.673-.011-.179-.185-.178-.479 0-.663l128.048-132.13 2.377 5.74-137.404-.29c-1.699-.004-3.073-1.383-3.069-3.082.002-.835.336-1.592.878-2.145l.019-.019 136.402-138.608c1.795-1.824 4.728-1.847 6.551-.053 1.824 1.795 1.847 4.728.053 6.551-.012.015-.041.044-.053.055z" fill="#ffd60d"/><path d="m411.429 171.587c2.312-5.604 3.596-11.742 3.596-18.181 0-26.35-21.361-47.71-47.71-47.71-5.079 0-9.97.801-14.561 2.271-10.505-52.378-56.755-91.835-112.225-91.835-63.218 0-114.467 51.249-114.467 114.467-47.53 0-86.061 38.671-86.061 86.201s38.53 86.2 86.06 86.2h280.264c36.271 0 65.675-29.544 65.675-65.815 0-34.552-26.688-62.991-60.571-65.598z" fill="#95a7af"/></svg>