<svg enable-background="new 0 0 512 512" viewBox="0 0 512 512" xmlns="http://www.w3.org/2000/svg"><path d="m279.034 106.239c-.374-10.88-9.317-19.621-20.287-19.621-10.969 0-19.913 8.742-20.287 19.621-.023.23-.036.464-.036.701v18.242c0 3.579 2.749 6.512 6.25 6.814v314.267c0 16.488-13.415 29.902-29.903 29.902s-29.903-13.414-29.903-29.902c0-8.258-6.694-14.951-14.951-14.951s-14.951 6.693-14.951 14.951c0 32.977 26.829 59.805 59.805 59.805s59.805-26.828 59.805-59.805v-314.661c2.619-.96 4.492-3.468 4.492-6.42v-18.242c.001-.237-.011-.471-.034-.701z" fill="#597b91"/><path d="m495.212 301.08c-28.708-104.623-121.848-181.503-235.586-181.503s-208.636 76.879-237.344 181.503h.208l-.208.208c0 21.244 17.222 38.466 38.466 38.466 13.274 0 24.976-6.723 31.89-16.95 3.823-5.656 12.085-6.118 16.433-.854 9.653 11.685 24.25 19.133 40.591 19.133 18.092 0 34.046-9.129 43.519-23.031 3.87-5.679 12.144-5.87 16.511-.564 11.857 14.406 29.819 23.594 49.935 23.594 19.689 0 37.319-8.801 49.178-22.681 4.397-5.146 12.384-4.638 16.349.847 9.561 13.226 25.112 21.834 42.68 21.834 16.331 0 30.92-7.438 40.573-19.11 4.34-5.247 12.594-4.79 16.407.851 6.918 10.231 18.625 16.957 31.906 16.957 21.259 0 38.493-17.234 38.493-38.493l-.208-.208h.207z" fill="#ff473e"/><path d="m96.786 319.269c-1.611.756-3.062 1.928-4.148 3.535-6.913 10.227-18.616 16.95-31.89 16.95-21.244 0-38.466-17.222-38.466-38.466l.208-.208h-.208c28.663-104.461 123.313-181.259 236.816-181.497-77.847.239-162.34 111.687-162.34 193.272 0 2.234.01 4.36.028 6.414zm398.426-18.189c-28.673-104.496-121.623-181.312-235.173-181.498 77.862.187 162.395 111.669 162.395 193.273 0 2.611-.012 5.094-.036 7.461.913.673 1.737 1.504 2.416 2.508 6.917 10.231 18.625 16.957 31.906 16.957 21.259 0 38.493-17.234 38.493-38.493l-.208-.208zm-236.271-181.496c-.154 0-.308.004-.463.005-26.365.518-54.939 111.783-54.939 193.266 0 .334.001.649.001.979 2.309.44 4.507 1.657 6.152 3.655 11.857 14.406 29.819 23.594 49.934 23.594 19.689 0 37.319-8.801 49.178-22.681 1.425-1.668 3.229-2.732 5.149-3.235.001-.766.002-1.523.002-2.312 0-81.56-28.628-192.961-55.014-193.271z" fill="#ff6e83"/><path d="m61.678 81.864 16.711 42.054c4.023 13.266-3.468 27.282-16.737 31.305-13.266 4.026-27.282-3.468-31.309-16.737-1.498-4.941-1.4-9.976 0-14.568l16.712-42.054c1.222-4.037 5.492-6.315 9.529-5.093 2.519.766 4.369 2.761 5.094 5.093zm355.253-45.028c-4.037-1.222-8.307 1.056-9.529 5.093l-16.712 42.054c-1.4 4.592-1.498 9.627 0 14.568 4.026 13.269 18.043 20.764 31.309 16.737 13.269-4.023 20.76-18.039 16.737-31.305l-16.711-42.054c-.725-2.332-2.575-4.327-5.094-5.093zm-227.818-36.799c-3.878-1.174-7.979 1.014-9.154 4.892l-16.053 40.396c-1.345 4.411-1.439 9.248 0 13.994 3.868 12.746 17.332 19.945 30.074 16.077 12.746-3.864 19.942-17.328 16.077-30.071l-16.051-40.396c-.697-2.24-2.474-4.157-4.893-4.892z" fill="#59cafc"/></svg>